<svg xmlns="http://www.w3.org/2000/svg" viewBox="0 0 640 620" font-family="PingFang SC, Hiragino Sans GB, Microsoft YaHei, sans-serif">
  <defs>
    <marker id="arr" viewBox="0 0 10 10" refX="9" refY="5" markerWidth="7" markerHeight="7" orient="auto-start-reverse">
      <path d="M 0 0 L 10 5 L 0 10 z" fill="#555"/>
    </marker>
  </defs>

  <text x="320" y="40" text-anchor="middle" font-size="20" font-weight="bold" fill="#222">§4.5 macOS 快捷键填充流程（5 步）</text>

  <!-- ===== 步骤 1 ===== -->
  <circle cx="90" cy="123" r="13" fill="#3B9E5F"/>
  <text x="90" y="128" text-anchor="middle" font-size="13" font-weight="bold" fill="#fff">①</text>
  <rect x="60" y="90" width="520" height="66" rx="8" fill="#EAF7EE" stroke="#3B9E5F" stroke-width="1.5"/>
  <text x="118" y="128" font-size="13" fill="#222">用户按全局快捷键</text>
  <line x1="320" y1="156" x2="320" y2="186" stroke="#555" stroke-width="1.5" marker-end="url(#arr)"/>

  <!-- ===== 步骤 2 ===== -->
  <circle cx="90" cy="219" r="13" fill="#3B9E5F"/>
  <text x="90" y="224" text-anchor="middle" font-size="13" font-weight="bold" fill="#fff">②</text>
  <rect x="60" y="186" width="520" height="66" rx="8" fill="#EAF7EE" stroke="#3B9E5F" stroke-width="1.5"/>
  <text x="118" y="212" font-size="13" fill="#222">菜单栏弹出快速搜索面板</text>
  <line x1="320" y1="252" x2="320" y2="282" stroke="#555" stroke-width="1.5" marker-end="url(#arr)"/>

  <!-- ===== 步骤 3（搜索并选中 + Touch ID 确认） ===== -->
  <circle cx="90" cy="315" r="13" fill="#C47B3B"/>
  <text x="90" y="320" text-anchor="middle" font-size="13" font-weight="bold" fill="#fff">③</text>
  <rect x="60" y="282" width="520" height="66" rx="8" fill="#FBF3E4" stroke="#C47B3B" stroke-width="1.5"/>
  <text x="118" y="308" font-size="13" fill="#222">搜索并选中条目 → Touch ID 确认</text>
  <line x1="320" y1="348" x2="320" y2="378" stroke="#555" stroke-width="1.5" marker-end="url(#arr)"/>

  <!-- ===== 步骤 4 ===== -->
  <circle cx="90" cy="411" r="13" fill="#3B9E5F"/>
  <text x="90" y="416" text-anchor="middle" font-size="13" font-weight="bold" fill="#fff">④</text>
  <rect x="60" y="378" width="520" height="66" rx="8" fill="#EAF7EE" stroke="#3B9E5F" stroke-width="1.5"/>
  <text x="118" y="404" font-size="13" fill="#222">密码写入剪贴板 → 提示用户粘贴</text>
  <line x1="320" y1="444" x2="320" y2="474" stroke="#555" stroke-width="1.5" marker-end="url(#arr)"/>

  <!-- ===== 步骤 5 ===== -->
  <circle cx="90" cy="507" r="13" fill="#3B9E5F"/>
  <text x="90" y="512" text-anchor="middle" font-size="13" font-weight="bold" fill="#fff">⑤</text>
  <rect x="60" y="474" width="520" height="66" rx="8" fill="#EAF7EE" stroke="#3B9E5F" stroke-width="1.5"/>
  <text x="118" y="512" font-size="13" fill="#222">N 秒后自动清空剪贴板</text>

  <text x="320" y="580" text-anchor="middle" font-size="11" fill="#999">§4.5 · macOS 剪贴板方案（H-01 已定）：Touch ID 确认后写入剪贴板，N 秒自动清空</text>
</svg>
